<svg xmlns="http://www.w3.org/2000/svg" viewBox="0 0 690 233"><defs><style>.cls-1,.cls-4{fill:#fff;}.cls-2,.cls-3{fill:none;stroke:#fff;}.cls-2{stroke-miterlimit:10;}.cls-3{stroke-linecap:round;stroke-linejoin:round;}.cls-4{font-size:28px;font-family:MicrosoftYaHeiUI-Bold, Microsoft YaHei UI;font-weight:700;letter-spacing:0.13em;}.cls-5{letter-spacing:0.16em;}.cls-6{letter-spacing:0.12em;}</style></defs><title>Arso_Logo_SVG</title><g id="Layer_2" data-name="Layer 2"><g id="Layer_2-2" data-name="Layer 2"><path class="cls-1" d="M636.5,127.25a52.5,52.5,0,1,1-52.49,53h17a35.5,35.5,0,1,0,35.49-36H584.77l19.91-17Z" transform="translate(0 -0.25)"/><polygon class="cls-1" points="636.5 127 604.68 127 604.82 126.88 604 126 636.5 126 636.5 127"/><polygon class="cls-1" points="604 126 604.82 126.88 604.68 127 604 127 604 126"/><polygon class="cls-1" points="582 145 604 126 604 127 604.68 127 584.77 144 583.5 144 582 145"/><path class="cls-1" d="M636.5,214.25a34.5,34.5,0,0,0,0-69v-1a35.5,35.5,0,1,1-35.49,36h1v-.5A34.54,34.54,0,0,0,636.5,214.25Z" transform="translate(0 -0.25)"/><path class="cls-1" d="M602,179.75v.5h-1c0-.17,0-.33,0-.5Z" transform="translate(0 -0.25)"/><path class="cls-1" d="M602,179.25v.5h-1c0,.17,0,.33,0,.5H584c0-.16,0-.33,0-.5h-1v-.5Z" transform="translate(0 -0.25)"/><path class="cls-1" d="M689,179.75a52.56,52.56,0,0,0-52.5-52.5v-1a53.5,53.5,0,1,1-53.49,54h1a52.5,52.5,0,0,0,105-.5Z" transform="translate(0 -0.25)"/><polygon class="cls-1" points="636.5 144 636.5 145 582 145 584.32 144.38 584.77 144 636.5 144"/><polygon class="cls-1" points="583.5 144 584.77 144 584.32 144.38 582 145 583.5 144"/><path class="cls-1" d="M584,179.75c0,.17,0,.34,0,.5h-1c0-.17,0-.33,0-.5Z" transform="translate(0 -0.25)"/><path class="cls-1" d="M583,179.75c0,.17,0,.33,0,.5h0Z" transform="translate(0 -0.25)"/><polygon class="cls-1" points="557 126 535 145 535 144 534.32 144 554.23 127 555.5 127 557 126"/><polygon class="cls-1" points="557 126 555.5 127 554.23 127 554.68 126.62 557 126"/><polygon class="cls-1" points="557 214 535 233 535 232 534.32 232 554.23 215 555 215 557 214"/><polygon class="cls-1" points="557 214 555 215 554.23 215 554.68 214.62 557 214"/><polygon class="cls-1" points="502.5 214 557 214 554.68 214.62 554.23 215 502.5 215 502.5 214"/><polygon class="cls-1" points="554.68 126.62 554.23 127 502.5 127 502.5 126 557 126 554.68 126.62"/><polygon class="cls-1" points="535 232 535 233 534.18 232.12 534.32 232 535 232"/><polygon class="cls-1" points="535 144 535 145 534.18 144.12 534.32 144 535 144"/><polygon class="cls-1" points="534.18 144.12 535 145 503 145 503 144 534.32 144 534.18 144.12"/><polygon class="cls-1" points="534.18 232.12 535 233 502.5 233 502.5 232 534.32 232 534.18 232.12"/><path class="cls-1" d="M502.5,144.25a35.5,35.5,0,0,0,0,71h51.73l-19.91,17H502.5a52.5,52.5,0,0,1,0-105h51.73l-19.91,17H503v1h-.5Z" transform="translate(0 -0.25)"/><path class="cls-1" d="M502.5,215.25a35.5,35.5,0,0,1,0-71v1a34.5,34.5,0,0,0,0,69Z" transform="translate(0 -0.25)"/><path class="cls-1" d="M502.5,233.25a53.5,53.5,0,0,1,0-107v1a52.5,52.5,0,0,0,0,105Z" transform="translate(0 -0.25)"/><path class="cls-1" d="M388.5,168.75c6.62,0,12.5-4.88,12.5-11.5a12.88,12.88,0,0,0-12.5-12.5H358v24Zm2-41.5a30.5,30.5,0,0,1,0,61h-32v-.5h-1v.5L357,231.56l-18-18.8V127.25Z" transform="translate(0 -0.25)"/><polygon class="cls-1" points="358.5 187.5 358.49 188 357.5 188 357.49 188 357.5 187.5 358.5 187.5"/><polygon class="cls-1" points="357.85 232.18 357.02 231.31 357.49 188 357.5 188 358.49 188 358 233 357.04 233 357.85 232.18"/><polygon class="cls-1" points="357.02 231.31 357.85 232.18 357.04 233 357 232.96 357.02 231.31"/><polygon class="cls-1" points="357 232.96 357.04 233 357 233 357 232.96"/><polygon class="cls-1" points="339.01 212.51 339.01 214 338.01 213 339 212.5 339.01 212.51"/><polygon class="cls-1" points="338 212.99 338 126.5 339.01 126.5 339.01 127 339.01 212.51 339 212.5 338.01 213 338 213 338 212.99"/><polygon class="cls-1" points="339.01 214 339.01 212.51 357.02 231.31 357 232.96 338 213 338.01 213 339.01 214"/><path class="cls-1" d="M318,232.25l-.7,1c-.59-.26-1.24-.58-1.94-1Z" transform="translate(0 -0.25)"/><path class="cls-1" d="M275,188.55a97.76,97.76,0,0,0,15.9,22.85c9.26,9.65,21.44,18.32,27.14,20.85h-2.64c-6.25-3.4-16.82-11.4-25.22-20.15A98.83,98.83,0,0,1,274.05,189l.45-.21Z" transform="translate(0 -0.25)"/><polygon class="cls-1" points="274.95 188.29 274.96 188.3 274.5 188.5 274.95 188.29"/><polygon class="cls-1" points="274.95 188.29 274.5 188.5 274.04 188.7 191.48 1.09 192 0 274.95 188.29"/><path class="cls-1" d="M274.05,189a98.83,98.83,0,0,0,16.09,23.14c8.4,8.75,19,16.75,25.22,20.15h-136c10.25-6.09,17.63-13.64,21.93-22.43,6.63-13.54,1.9-32-4.17-43.64a0,0,0,0,0,0,0L156,76.25,191.48,1.34,274,189l.46-.2Z" transform="translate(0 -0.25)"/><path class="cls-1" d="M197.09,166.15a0,0,0,0,1,0,0l-.45.21Z" transform="translate(0 -0.25)"/><polygon class="cls-1" points="192 0 191.48 1.09 191 0 192 0"/><polygon class="cls-1" points="191.48 1.09 156 76 155 76 191 0 191.48 1.09"/><path class="cls-1" d="M179.34,232.25l-1.05.62-.53.31-.76-.93Z" transform="translate(0 -0.25)"/><path class="cls-1" d="M200.37,209.38c6.47-13.22,1.8-31.3-4.17-42.76l.45-.23.45-.21c6.07,11.68,10.8,30.1,4.17,43.64-4.3,8.79-11.68,16.34-21.93,22.43H177l.79-.25C188.42,225.9,196,218.29,200.37,209.38Z" transform="translate(0 -0.25)"/><path class="cls-1" d="M317.3,233.21l.7-1v1H177v-1l.76.93.53-.31,1.05-.62h136C316.06,232.63,316.71,233,317.3,233.21Z" transform="translate(0 -0.25)"/><polygon class="cls-1" points="156 76 197.09 165.9 196.65 166.14 196.19 166.34 155 76 156 76"/><path class="cls-1" d="M140,233.25c-.73-.28-1.56-.61-2.47-1H139Z" transform="translate(0 -0.25)"/><path class="cls-1" d="M137.53,232.25h-71a118.43,118.43,0,0,0,22.88-16.72c8.52-7.83,13.22-17.38,16.65-24.36a18.11,18.11,0,0,0,.92-2.37,57.71,57.71,0,0,0,10.63,28.51C123.35,225.2,131.91,229.84,137.53,232.25Z" transform="translate(0 -0.25)"/><path class="cls-1" d="M137.53,232.25c-5.62-2.41-14.18-7.05-19.89-14.94A57.71,57.71,0,0,1,107,188.8h0a16.21,16.21,0,0,1,1-2.54c-.31,3.07,1,17.34,10.45,30.48,6.48,9,16.4,13.55,21.55,15.52v1l-1-1Z" transform="translate(0 -0.25)"/><path class="cls-1" d="M107,186.25h1a16.21,16.21,0,0,0-1,2.54A17.74,17.74,0,0,1,107,186.25Z" transform="translate(0 -0.25)"/><path class="cls-1" d="M105.2,190.73c.82-1.68,1.06-3.1,1.8-4.48a17.74,17.74,0,0,0,0,2.54h0a18.11,18.11,0,0,1-.92,2.37c-3.43,7-8.13,16.53-16.65,24.36a118.43,118.43,0,0,1-22.88,16.72H64c7.29-3.57,16.73-10.07,24.77-17.45C97.15,207.09,101.8,197.63,105.2,190.73Z" transform="translate(0 -0.25)"/><path class="cls-1" d="M64,232.25h2.56c-.63.34-1.24.65-1.84.95Z" transform="translate(0 -0.25)"/><path class="cls-1" d="M140,233.25H64v-1l.72.95c.6-.3,1.21-.61,1.84-.95h71C138.44,232.64,139.27,233,140,233.25Z" transform="translate(0 -0.25)"/><path class="cls-2" d="M390.5,188.25a30.5,30.5,0,0,0,0-61" transform="translate(0 -0.25)"/><path class="cls-2" d="M388.5,168.75c6.62,0,12.5-4.88,12.5-11.5a12.88,12.88,0,0,0-12.5-12.5" transform="translate(0 -0.25)"/><polyline class="cls-2" points="358.49 188 390.5 188 392.5 188"/><line class="cls-2" x1="358" y1="144.5" x2="358" y2="168.5"/><polyline class="cls-2" points="357.5 144.5 358 144.5 388.5 144.5 389.5 144.5"/><polyline class="cls-2" points="357.5 168.5 358 168.5 388.5 168.5 389.5 168.5"/><polyline class="cls-3" points="338.5 127 339.01 127 390.5 127"/><text class="cls-4" transform="translate(0 159.38)">POHIŠ<tspan class="cls-5" x="108.33" y="0">T</tspan><tspan class="cls-6" x="130.23" y="0">V</tspan><tspan x="153.74" y="0">O</tspan></text></g></g></svg>